<?xml version="1.0" standalone="no"?>
<!DOCTYPE svg PUBLIC "-//W3C//DTD SVG 20010904//EN"
 "http://www.w3.org/TR/2001/REC-SVG-20010904/DTD/svg10.dtd">
<svg version="1.0" xmlns="http://www.w3.org/2000/svg"
 width="150.000000pt" height="150.000000pt" viewBox="0 0 150.000000 150.000000"
 preserveAspectRatio="xMidYMid meet">
<metadata>
Created by potrace 1.14, written by Peter Selinger 2001-2017
</metadata>
<g transform="translate(0.000000,150.000000) scale(0.100000,-0.100000)"
fill="#000000" stroke="none">
<path d="M0 750 l0 -750 750 0 750 0 0 750 0 750 -750 0 -750 0 0 -750z m997
458 c35 -18 63 -35 63 -38 0 -3 -89 -42 -197 -88 -192 -80 -297 -127 -260
-117 9 2 17 2 17 -1 0 -8 -94 -47 -114 -46 -17 1 -18 -7 -12 -156 14 -334 15
-412 8 -412 -4 0 -38 17 -77 38 l-70 37 0 288 0 288 280 119 c154 65 285 119
290 120 6 0 38 -14 72 -32z m50 -390 c35 -18 63 -35 63 -38 0 -3 -44 -23 -98
-44 -53 -21 -107 -45 -120 -53 -21 -13 -28 -11 -82 19 -33 18 -60 38 -60 44 0
10 197 100 225 103 6 1 38 -13 72 -31z m68 -242 l0 -139 -219 -89 c-120 -48
-233 -88 -250 -88 -43 0 -74 24 -97 74 -26 57 -25 71 3 52 38 -27 79 -18 254
53 l169 69 5 92 c5 85 7 93 30 106 14 7 43 13 65 11 l40 -2 0 -139z"/>
</g>
</svg>
